<svg id="visual" viewBox="0 0 2160 2160" width="2160" height="2160" xmlns="http://www.w3.org/2000/svg" xmlns:xlink="http://www.w3.org/1999/xlink" version="1.1"><rect x="0" y="0" width="2160" height="2160" fill="#001220"></rect><defs><linearGradient id="grad1_0" x1="0%" y1="0%" x2="100%" y2="100%"><stop offset="30%" stop-color="#001220" stop-opacity="1"></stop><stop offset="70%" stop-color="#001220" stop-opacity="1"></stop></linearGradient></defs><defs><linearGradient id="grad2_0" x1="0%" y1="0%" x2="100%" y2="100%"><stop offset="30%" stop-color="#001220" stop-opacity="1"></stop><stop offset="70%" stop-color="#001220" stop-opacity="1"></stop></linearGradient></defs><g transform="translate(2160, 0)"><path d="M0 1374.6C-182.2 1320.5 -364.4 1266.4 -479.1 1156.7C-593.8 1047 -640.9 881.7 -781.4 781.4C-921.8 681 -1155.5 645.5 -1270 526C-1384.4 406.6 -1379.5 203.3 -1374.6 0L0 0Z" fill="#FBAE3C"></path></g><g transform="translate(0, 2160)"><path d="M0 -1374.6C150.5 -1262.4 301.1 -1150.2 444.3 -1072.6C587.5 -995 723.4 -951.9 872.6 -872.6C1021.7 -793.2 1184.1 -677.5 1270 -526C1355.9 -374.6 1365.2 -187.3 1374.6 0L0 0Z" fill="#FBAE3C"></path></g></svg>