<svg id="visual" viewBox="0 0 2160 2160" width="2160" height="2160" xmlns="http://www.w3.org/2000/svg" xmlns:xlink="http://www.w3.org/1999/xlink" version="1.1"><rect x="0" y="0" width="2160" height="2160" fill="#001220"></rect><defs><linearGradient id="grad1_0" x1="0%" y1="0%" x2="100%" y2="100%"><stop offset="30%" stop-color="#001220" stop-opacity="1"></stop><stop offset="70%" stop-color="#001220" stop-opacity="1"></stop></linearGradient></defs><defs><linearGradient id="grad2_0" x1="0%" y1="0%" x2="100%" y2="100%"><stop offset="30%" stop-color="#001220" stop-opacity="1"></stop><stop offset="70%" stop-color="#001220" stop-opacity="1"></stop></linearGradient></defs><g transform="translate(2160, 0)"><path d="M0 1374.6C-195.6 1369.7 -391.3 1364.8 -526 1270C-660.8 1175.2 -734.8 990.5 -860.5 860.5C-986.3 730.6 -1164 655.5 -1258.3 521.2C-1352.6 386.9 -1363.6 193.5 -1374.6 0L0 0Z" fill="#FBAE3C"></path></g><g transform="translate(0, 2160)"><path d="M0 -1374.6C145 -1277.7 290 -1180.7 468.4 -1130.8C646.8 -1081 858.6 -1078.2 972 -972C1085.4 -865.8 1100.4 -656.1 1151.2 -476.8C1201.9 -297.6 1288.2 -148.8 1374.6 0L0 0Z" fill="#FBAE3C"></path></g></svg>