<svg id="visual" viewBox="0 0 2160 2160" width="2160" height="2160" xmlns="http://www.w3.org/2000/svg" xmlns:xlink="http://www.w3.org/1999/xlink" version="1.1"><rect x="0" y="0" width="2160" height="2160" fill="#001220"></rect><defs><linearGradient id="grad1_0" x1="0%" y1="0%" x2="100%" y2="100%"><stop offset="30%" stop-color="#001220" stop-opacity="1"></stop><stop offset="70%" stop-color="#001220" stop-opacity="1"></stop></linearGradient></defs><defs><linearGradient id="grad2_0" x1="0%" y1="0%" x2="100%" y2="100%"><stop offset="30%" stop-color="#001220" stop-opacity="1"></stop><stop offset="70%" stop-color="#001220" stop-opacity="1"></stop></linearGradient></defs><g transform="translate(2160, 0)"><path d="M0 1374.6C-195.9 1371.5 -391.7 1368.3 -526 1270C-660.4 1171.7 -733.2 978.2 -840.7 840.7C-948.3 703.3 -1090.6 621.8 -1185.3 491C-1280.1 360.2 -1327.4 180.1 -1374.6 0L0 0Z" fill="#FBAE3C"></path></g><g transform="translate(0, 2160)"><path d="M0 -1374.6C192.8 -1348.2 385.6 -1321.8 501.7 -1211.2C617.8 -1100.7 657.2 -906 792 -792C926.8 -677.9 1157 -644.6 1270 -526C1383 -407.5 1378.8 -203.7 1374.6 0L0 0Z" fill="#FBAE3C"></path></g></svg>