<svg id="visual" viewBox="0 0 2160 2160" width="2160" height="2160" xmlns="http://www.w3.org/2000/svg" xmlns:xlink="http://www.w3.org/1999/xlink" version="1.1"><rect x="0" y="0" width="2160" height="2160" fill="#001220"></rect><defs><linearGradient id="grad1_0" x1="0%" y1="0%" x2="100%" y2="100%"><stop offset="30%" stop-color="#001220" stop-opacity="1"></stop><stop offset="70%" stop-color="#001220" stop-opacity="1"></stop></linearGradient></defs><defs><linearGradient id="grad2_0" x1="0%" y1="0%" x2="100%" y2="100%"><stop offset="30%" stop-color="#001220" stop-opacity="1"></stop><stop offset="70%" stop-color="#001220" stop-opacity="1"></stop></linearGradient></defs><g transform="translate(2160, 0)"><path d="M0 1374.6C-178.7 1325.1 -357.3 1275.5 -489.8 1182.6C-622.3 1089.6 -708.6 953.3 -846.4 846.4C-984.2 739.6 -1173.4 662.2 -1270 526C-1366.6 389.9 -1370.6 194.9 -1374.6 0L0 0Z" fill="#FBAE3C"></path></g><g transform="translate(0, 2160)"><path d="M0 -1374.6C189 -1364.5 378 -1354.3 526 -1270C674.1 -1185.6 781.1 -1027.1 890.2 -890.2C999.4 -753.4 1110.7 -638.4 1191.8 -493.7C1272.9 -348.9 1323.8 -174.5 1374.6 0L0 0Z" fill="#FBAE3C"></path></g></svg>