<svg id="visual" viewBox="0 0 960 300" width="960" height="300" xmlns="http://www.w3.org/2000/svg" xmlns:xlink="http://www.w3.org/1999/xlink" version="1.1"><rect x="0" y="0" width="960" height="300" fill="#FF0066"></rect><g transform="translate(460.2767581047234 148.8207003517433)"><path d="M53.5 -87C74 -80.8 98.5 -75.9 108.4 -61.6C118.3 -47.3 113.7 -23.7 114.8 0.7C116 25 122.9 50 111.4 61.5C99.9 73.1 70 71.2 48.3 79.9C26.7 88.5 13.3 107.8 -2.7 112.5C-18.8 117.3 -37.7 107.6 -50.1 93.6C-62.5 79.6 -68.5 61.3 -71.6 45C-74.7 28.7 -74.8 14.3 -76 -0.7C-77.1 -15.7 -79.3 -31.3 -78.2 -51.1C-77.1 -70.9 -72.8 -94.8 -59.2 -104.9C-45.7 -115.1 -22.8 -111.5 -3.2 -106.1C16.5 -100.6 33 -93.2 53.5 -87" fill="#BB004B"></path></g></svg>