<svg id="visual" viewBox="0 0 960 300" width="960" height="300" xmlns="http://www.w3.org/2000/svg" xmlns:xlink="http://www.w3.org/1999/xlink" version="1.1"><rect x="0" y="0" width="960" height="300" fill="#FF0066"></rect><g transform="translate(473.7310488444273 150.51010988624526)"><path d="M46.5 -83.2C58.3 -73.7 64.7 -57.4 80.2 -42.3C95.7 -27.3 120.3 -13.7 130.2 5.7C140 25 134.9 50 118.1 62.7C101.3 75.4 72.6 75.8 51 80C29.3 84.1 14.7 92.1 0 92.1C-14.7 92.1 -29.3 84.1 -50.3 79.6C-71.2 75 -98.4 73.7 -111.7 61C-125 48.3 -124.5 24.2 -118.9 3.3C-113.3 -17.7 -102.5 -35.3 -88.1 -46.2C-73.7 -57 -55.6 -61 -40.3 -68.5C-25 -76 -12.5 -87 2.4 -91.2C17.3 -95.4 34.7 -92.7 46.5 -83.2" fill="#BB004B"></path></g></svg>