<svg id="visual" viewBox="0 0 960 100" width="960" height="100" xmlns="http://www.w3.org/2000/svg" xmlns:xlink="http://www.w3.org/1999/xlink" version="1.1"><rect x="0" y="0" width="960" height="100" fill="#001220"></rect><path d="M0 33L22.8 29.3C45.7 25.7 91.3 18.3 137 14.2C182.7 10 228.3 9 274 8.7C319.7 8.3 365.3 8.7 411.2 14.3C457 20 503 31 548.8 34C594.7 37 640.3 32 686 30.7C731.7 29.3 777.3 31.7 823 32.5C868.7 33.3 914.3 32.7 937.2 32.3L960 32L960 101L937.2 101C914.3 101 868.7 101 823 101C777.3 101 731.7 101 686 101C640.3 101 594.7 101 548.8 101C503 101 457 101 411.2 101C365.3 101 319.7 101 274 101C228.3 101 182.7 101 137 101C91.3 101 45.7 101 22.8 101L0 101Z" fill="#fa7268"></path><path d="M0 34L22.8 36.8C45.7 39.7 91.3 45.3 137 44.5C182.7 43.7 228.3 36.3 274 33.5C319.7 30.7 365.3 32.3 411.2 37.3C457 42.3 503 50.7 548.8 50.5C594.7 50.3 640.3 41.7 686 36.5C731.7 31.3 777.3 29.7 823 31.7C868.7 33.7 914.3 39.3 937.2 42.2L960 45L960 101L937.2 101C914.3 101 868.7 101 823 101C777.3 101 731.7 101 686 101C640.3 101 594.7 101 548.8 101C503 101 457 101 411.2 101C365.3 101 319.7 101 274 101C228.3 101 182.7 101 137 101C91.3 101 45.7 101 22.8 101L0 101Z" fill="#eb5967"></path><path d="M0 47L22.8 51.3C45.7 55.7 91.3 64.3 137 69C182.7 73.7 228.3 74.3 274 70C319.7 65.7 365.3 56.3 411.2 51.5C457 46.7 503 46.3 548.8 48.2C594.7 50 640.3 54 686 54.2C731.7 54.3 777.3 50.7 823 52.7C868.7 54.7 914.3 62.3 937.2 66.2L960 70L960 101L937.2 101C914.3 101 868.7 101 823 101C777.3 101 731.7 101 686 101C640.3 101 594.7 101 548.8 101C503 101 457 101 411.2 101C365.3 101 319.7 101 274 101C228.3 101 182.7 101 137 101C91.3 101 45.7 101 22.8 101L0 101Z" fill="#da3f67"></path><path d="M0 91L22.8 90.5C45.7 90 91.3 89 137 88.3C182.7 87.7 228.3 87.3 274 84.7C319.7 82 365.3 77 411.2 74.7C457 72.3 503 72.7 548.8 72C594.7 71.3 640.3 69.7 686 69.8C731.7 70 777.3 72 823 75C868.7 78 914.3 82 937.2 84L960 86L960 101L937.2 101C914.3 101 868.7 101 823 101C777.3 101 731.7 101 686 101C640.3 101 594.7 101 548.8 101C503 101 457 101 411.2 101C365.3 101 319.7 101 274 101C228.3 101 182.7 101 137 101C91.3 101 45.7 101 22.8 101L0 101Z" fill="#c62368"></path></svg>