<svg id="visual" viewBox="0 0 960 100" width="960" height="100" xmlns="http://www.w3.org/2000/svg" xmlns:xlink="http://www.w3.org/1999/xlink" version="1.1"><rect x="0" y="0" width="960" height="100" fill="#001220"></rect><path d="M0 82L22.8 81.7C45.7 81.3 91.3 80.7 137 79C182.7 77.3 228.3 74.7 274 72C319.7 69.3 365.3 66.7 411.2 67.8C457 69 503 74 548.8 77.7C594.7 81.3 640.3 83.7 686 79.2C731.7 74.7 777.3 63.3 823 62.5C868.7 61.7 914.3 71.3 937.2 76.2L960 81L960 0L937.2 0C914.3 0 868.7 0 823 0C777.3 0 731.7 0 686 0C640.3 0 594.7 0 548.8 0C503 0 457 0 411.2 0C365.3 0 319.7 0 274 0C228.3 0 182.7 0 137 0C91.3 0 45.7 0 22.8 0L0 0Z" fill="#fa7268"></path><path d="M0 68L22.8 67C45.7 66 91.3 64 137 59.7C182.7 55.3 228.3 48.7 274 50C319.7 51.3 365.3 60.7 411.2 60.3C457 60 503 50 548.8 45.2C594.7 40.3 640.3 40.7 686 42C731.7 43.3 777.3 45.7 823 46.5C868.7 47.3 914.3 46.7 937.2 46.3L960 46L960 0L937.2 0C914.3 0 868.7 0 823 0C777.3 0 731.7 0 686 0C640.3 0 594.7 0 548.8 0C503 0 457 0 411.2 0C365.3 0 319.7 0 274 0C228.3 0 182.7 0 137 0C91.3 0 45.7 0 22.8 0L0 0Z" fill="#eb5967"></path><path d="M0 43L22.8 39.8C45.7 36.7 91.3 30.3 137 31C182.7 31.7 228.3 39.3 274 39C319.7 38.7 365.3 30.3 411.2 28.7C457 27 503 32 548.8 34.8C594.7 37.7 640.3 38.3 686 35.7C731.7 33 777.3 27 823 27C868.7 27 914.3 33 937.2 36L960 39L960 0L937.2 0C914.3 0 868.7 0 823 0C777.3 0 731.7 0 686 0C640.3 0 594.7 0 548.8 0C503 0 457 0 411.2 0C365.3 0 319.7 0 274 0C228.3 0 182.7 0 137 0C91.3 0 45.7 0 22.8 0L0 0Z" fill="#da3f67"></path><path d="M0 6L22.8 6.3C45.7 6.7 91.3 7.3 137 11.3C182.7 15.3 228.3 22.7 274 26.7C319.7 30.7 365.3 31.3 411.2 27.7C457 24 503 16 548.8 14.5C594.7 13 640.3 18 686 21.7C731.7 25.3 777.3 27.7 823 25.3C868.7 23 914.3 16 937.2 12.5L960 9L960 0L937.2 0C914.3 0 868.7 0 823 0C777.3 0 731.7 0 686 0C640.3 0 594.7 0 548.8 0C503 0 457 0 411.2 0C365.3 0 319.7 0 274 0C228.3 0 182.7 0 137 0C91.3 0 45.7 0 22.8 0L0 0Z" fill="#c62368"></path></svg>