<svg id="visual" viewBox="0 0 960 300" width="960" height="300" xmlns="http://www.w3.org/2000/svg" xmlns:xlink="http://www.w3.org/1999/xlink" version="1.1"><rect x="0" y="0" width="960" height="300" fill="#001220"></rect><path d="M0 184L22.8 189.2C45.7 194.3 91.3 204.7 137 210.2C182.7 215.7 228.3 216.3 274 210.3C319.7 204.3 365.3 191.7 411.2 190.2C457 188.7 503 198.3 548.8 204C594.7 209.7 640.3 211.3 686 212.3C731.7 213.3 777.3 213.7 823 208.8C868.7 204 914.3 194 937.2 189L960 184L960 301L937.2 301C914.3 301 868.7 301 823 301C777.3 301 731.7 301 686 301C640.3 301 594.7 301 548.8 301C503 301 457 301 411.2 301C365.3 301 319.7 301 274 301C228.3 301 182.7 301 137 301C91.3 301 45.7 301 22.8 301L0 301Z" fill="#fa7268"></path><path d="M0 236L22.8 233.3C45.7 230.7 91.3 225.3 137 225.7C182.7 226 228.3 232 274 230.5C319.7 229 365.3 220 411.2 215.3C457 210.7 503 210.3 548.8 210.2C594.7 210 640.3 210 686 208C731.7 206 777.3 202 823 200.7C868.7 199.3 914.3 200.7 937.2 201.3L960 202L960 301L937.2 301C914.3 301 868.7 301 823 301C777.3 301 731.7 301 686 301C640.3 301 594.7 301 548.8 301C503 301 457 301 411.2 301C365.3 301 319.7 301 274 301C228.3 301 182.7 301 137 301C91.3 301 45.7 301 22.8 301L0 301Z" fill="#ef5f67"></path><path d="M0 251L22.8 245.5C45.7 240 91.3 229 137 224.3C182.7 219.7 228.3 221.3 274 224.8C319.7 228.3 365.3 233.7 411.2 234.2C457 234.7 503 230.3 548.8 229.2C594.7 228 640.3 230 686 232.5C731.7 235 777.3 238 823 241.5C868.7 245 914.3 249 937.2 251L960 253L960 301L937.2 301C914.3 301 868.7 301 823 301C777.3 301 731.7 301 686 301C640.3 301 594.7 301 548.8 301C503 301 457 301 411.2 301C365.3 301 319.7 301 274 301C228.3 301 182.7 301 137 301C91.3 301 45.7 301 22.8 301L0 301Z" fill="#e34c67"></path><path d="M0 262L22.8 260.2C45.7 258.3 91.3 254.7 137 254.3C182.7 254 228.3 257 274 259.3C319.7 261.7 365.3 263.3 411.2 261.5C457 259.7 503 254.3 548.8 254.3C594.7 254.3 640.3 259.7 686 259.7C731.7 259.7 777.3 254.3 823 254.5C868.7 254.7 914.3 260.3 937.2 263.2L960 266L960 301L937.2 301C914.3 301 868.7 301 823 301C777.3 301 731.7 301 686 301C640.3 301 594.7 301 548.8 301C503 301 457 301 411.2 301C365.3 301 319.7 301 274 301C228.3 301 182.7 301 137 301C91.3 301 45.7 301 22.8 301L0 301Z" fill="#d53867"></path><path d="M0 279L22.8 279.5C45.7 280 91.3 281 137 278.2C182.7 275.3 228.3 268.7 274 266.3C319.7 264 365.3 266 411.2 267.3C457 268.7 503 269.3 548.8 269C594.7 268.7 640.3 267.3 686 268.7C731.7 270 777.3 274 823 273.5C868.7 273 914.3 268 937.2 265.5L960 263L960 301L937.2 301C914.3 301 868.7 301 823 301C777.3 301 731.7 301 686 301C640.3 301 594.7 301 548.8 301C503 301 457 301 411.2 301C365.3 301 319.7 301 274 301C228.3 301 182.7 301 137 301C91.3 301 45.7 301 22.8 301L0 301Z" fill="#c62368"></path></svg>