<svg id="visual" viewBox="0 0 960 300" width="960" height="300" xmlns="http://www.w3.org/2000/svg" xmlns:xlink="http://www.w3.org/1999/xlink" version="1.1"><rect x="0" y="0" width="960" height="300" fill="#001220"></rect><path d="M0 89L22.8 89.3C45.7 89.7 91.3 90.3 137 91C182.7 91.7 228.3 92.3 274 89.8C319.7 87.3 365.3 81.7 411.2 81C457 80.3 503 84.7 548.8 91C594.7 97.3 640.3 105.7 686 105C731.7 104.3 777.3 94.7 823 95.3C868.7 96 914.3 107 937.2 112.5L960 118L960 0L937.2 0C914.3 0 868.7 0 823 0C777.3 0 731.7 0 686 0C640.3 0 594.7 0 548.8 0C503 0 457 0 411.2 0C365.3 0 319.7 0 274 0C228.3 0 182.7 0 137 0C91.3 0 45.7 0 22.8 0L0 0Z" fill="#fa7268"></path><path d="M0 73L22.8 71.5C45.7 70 91.3 67 137 69.5C182.7 72 228.3 80 274 81.5C319.7 83 365.3 78 411.2 76.5C457 75 503 77 548.8 76.3C594.7 75.7 640.3 72.3 686 69.3C731.7 66.3 777.3 63.7 823 65.8C868.7 68 914.3 75 937.2 78.5L960 82L960 0L937.2 0C914.3 0 868.7 0 823 0C777.3 0 731.7 0 686 0C640.3 0 594.7 0 548.8 0C503 0 457 0 411.2 0C365.3 0 319.7 0 274 0C228.3 0 182.7 0 137 0C91.3 0 45.7 0 22.8 0L0 0Z" fill="#ef5f67"></path><path d="M0 55L22.8 58.7C45.7 62.3 91.3 69.7 137 72C182.7 74.3 228.3 71.7 274 66.7C319.7 61.7 365.3 54.3 411.2 51.7C457 49 503 51 548.8 53.7C594.7 56.3 640.3 59.7 686 61.2C731.7 62.7 777.3 62.3 823 61.2C868.7 60 914.3 58 937.2 57L960 56L960 0L937.2 0C914.3 0 868.7 0 823 0C777.3 0 731.7 0 686 0C640.3 0 594.7 0 548.8 0C503 0 457 0 411.2 0C365.3 0 319.7 0 274 0C228.3 0 182.7 0 137 0C91.3 0 45.7 0 22.8 0L0 0Z" fill="#e34c67"></path><path d="M0 40L22.8 40.5C45.7 41 91.3 42 137 42.7C182.7 43.3 228.3 43.7 274 42C319.7 40.3 365.3 36.7 411.2 37.3C457 38 503 43 548.8 46.7C594.7 50.3 640.3 52.7 686 52.8C731.7 53 777.3 51 823 47.7C868.7 44.3 914.3 39.7 937.2 37.3L960 35L960 0L937.2 0C914.3 0 868.7 0 823 0C777.3 0 731.7 0 686 0C640.3 0 594.7 0 548.8 0C503 0 457 0 411.2 0C365.3 0 319.7 0 274 0C228.3 0 182.7 0 137 0C91.3 0 45.7 0 22.8 0L0 0Z" fill="#d53867"></path><path d="M0 19L22.8 18C45.7 17 91.3 15 137 17.2C182.7 19.3 228.3 25.7 274 28.3C319.7 31 365.3 30 411.2 30.7C457 31.3 503 33.7 548.8 33.7C594.7 33.7 640.3 31.3 686 31.2C731.7 31 777.3 33 823 33.2C868.7 33.3 914.3 31.7 937.2 30.8L960 30L960 0L937.2 0C914.3 0 868.7 0 823 0C777.3 0 731.7 0 686 0C640.3 0 594.7 0 548.8 0C503 0 457 0 411.2 0C365.3 0 319.7 0 274 0C228.3 0 182.7 0 137 0C91.3 0 45.7 0 22.8 0L0 0Z" fill="#c62368"></path></svg>