<svg id="visual" viewBox="0 0 1080 100" width="1080" height="100" xmlns="http://www.w3.org/2000/svg" xmlns:xlink="http://www.w3.org/1999/xlink" version="1.1"><rect x="0" y="0" width="1080" height="100" fill="#002233"></rect><path d="M0 52L25.7 50C51.3 48 102.7 44 154.2 41.8C205.7 39.7 257.3 39.3 308.8 40.5C360.3 41.7 411.7 44.3 463 48.5C514.3 52.7 565.7 58.3 617 62.5C668.3 66.7 719.7 69.3 771.2 69.2C822.7 69 874.3 66 925.8 61.3C977.3 56.7 1028.7 50.3 1054.3 47.2L1080 44L1080 101L1054.3 101C1028.7 101 977.3 101 925.8 101C874.3 101 822.7 101 771.2 101C719.7 101 668.3 101 617 101C565.7 101 514.3 101 463 101C411.7 101 360.3 101 308.8 101C257.3 101 205.7 101 154.2 101C102.7 101 51.3 101 25.7 101L0 101Z" fill="#0066FF" stroke-linecap="round" stroke-linejoin="miter"></path></svg>